<?xml version="1.0" encoding="utf-8"?>
<svg version="1.1" xmlns:xlink="http://www.w3.org/1999/xlink" width="24px" height="20px" xmlns="http://www.w3.org/2000/svg">
  <defs>
    <linearGradient gradientUnits="userSpaceOnUse" x1="1.89324396306818" y1="12.638916015625" x2="22.31689453125" y2="12.1784834827451" id="LinearGradient126">
      <stop id="Stop127" stop-color="#fad6a9" offset="0" />
      <stop id="Stop128" stop-color="#ffd5b2" offset="0.21" />
      <stop id="Stop129" stop-color="#fbcd9c" offset="0.38" />
      <stop id="Stop130" stop-color="#f7af3f" offset="0.77" />
      <stop id="Stop131" stop-color="#f9cc9b" offset="1" />
    </linearGradient>
  </defs>
  <g transform="matrix(1 0 0 1 -1469 -1076 )">
    <path d="M 17.1800886767173 8.01421220472625  L 20.6436517195571 7.42107871197237  C 20.5189446996483 7.1748937864611  20.4485667685803 6.89577811103752  20.4485667685803 6.60000000000031  C 20.4485667685803 5.60588745036031  21.243582177467 4.8000000000003  22.2242833842902 4.8000000000003  C 23.2049845911133 4.8000000000003  24 5.60588745036031  24 6.60000000000031  C 24 7.59411254964033  23.2049845911133 8.40000000000035  22.2242833842902 8.40000000000035  C 22.1471484101594 8.40000000000035  22.0711621395312 8.39501455821096  21.9966208394471 8.38534585329123  L 20.0029428147081 19  L 3.71244020995346 19  L 2.00313755330308 8.38537550901711  C 1.92867381332962 8.39502531540927  1.85276832697946 8.40000000000035  1.77571661570983 8.40000000000035  C 0.795015408886684 8.40000000000035  0 7.59411254964033  0 6.60000000000031  C 0 5.60588745036031  0.795015408886684 4.8000000000003  1.77571661570983 4.8000000000003  C 2.75641782253297 4.8000000000003  3.55143323141965 5.60588745036031  3.55143323141965 6.60000000000031  C 3.55143323141965 6.9081234491334  3.47505775454874 7.19816450444631  3.34045077139444 7.4517318762509  L 6.20106724017478 8.01421220472625  L 10.1901224083831 4.05506608130548  C 9.78548802136493 3.62446659224753  9.53709124580701 3.04163807697327  9.53709124580701 2.40000000000049  C 9.53709124580701 1.07451660048048  10.5971117909894 0  11.9047134000866 0  C 13.2123150091843 0  14.2723355543667 1.07451660048048  14.2723355543667 2.40000000000049  C 14.2723355543667 3.09227323001912  13.98318716821 3.71608868792086  13.5206352284154 4.15411917191878  L 17.1800886767173 8.01421220472625  Z " fill-rule="nonzero" fill="url(#LinearGradient126)" stroke="none" transform="matrix(1 0 0 1 1469 1076 )" />
  </g>
</svg>