<?xml version="1.0" encoding="utf-8"?>
<svg version="1.1" xmlns:xlink="http://www.w3.org/1999/xlink" width="24px" height="20px" xmlns="http://www.w3.org/2000/svg">
  <defs>
    <linearGradient gradientUnits="userSpaceOnUse" x1="1.89324396306818" y1="12.638916015625" x2="22.31689453125" y2="12.1784834827451" id="LinearGradient120">
      <stop id="Stop121" stop-color="#ffdc41" offset="0" />
      <stop id="Stop122" stop-color="#ffd017" offset="0.11" />
      <stop id="Stop123" stop-color="#ffe254" offset="0.38" />
      <stop id="Stop124" stop-color="#f5aa00" offset="0.77" />
      <stop id="Stop125" stop-color="#ffcf12" offset="1" />
    </linearGradient>
  </defs>
  <g transform="matrix(1 0 0 1 -1469 -998 )">
    <path d="M 17.1800886767173 8.01421220472605  L 20.6436517195571 7.42107871197214  C 20.5189446996483 7.17489378646087  20.4485667685803 6.89577811103732  20.4485667685803 6.60000000000008  C 20.4485667685803 5.60588745036006  21.243582177467 4.80000000000007  22.2242833842902 4.80000000000007  C 23.2049845911133 4.80000000000007  24 5.60588745036006  24 6.60000000000008  C 24 7.5941125496401  23.2049845911133 8.40000000000009  22.2242833842902 8.40000000000009  C 22.1471484101594 8.40000000000009  22.0711621395312 8.39501455821068  21.9966208394471 8.38534585329091  L 20.0029428147081 19  L 3.71244020995346 19  L 2.00313755330308 8.38537550901691  C 1.92867381332962 8.39502531540904  1.85276832697946 8.40000000000009  1.77571661570983 8.40000000000009  C 0.795015408886684 8.40000000000009  0 7.5941125496401  0 6.60000000000008  C 0 5.60588745036006  0.795015408886684 4.80000000000007  1.77571661570983 4.80000000000007  C 2.75641782253297 4.80000000000007  3.55143323141965 5.60588745036006  3.55143323141965 6.60000000000008  C 3.55143323141965 6.90812344913326  3.47505775454874 7.19816450444625  3.34045077139399 7.45173187625062  L 6.20106724017478 8.01421220472605  L 10.1901224083831 4.05506608130526  C 9.78548802136493 3.6244665922473  9.53709124580701 3.04163807697307  9.53709124580701 2.40000000000026  C 9.53709124580701 1.07451660048025  10.5971117909894 0  11.9047134000866 0  C 13.2123150091843 0  14.2723355543667 1.07451660048025  14.2723355543667 2.40000000000026  C 14.2723355543667 3.09227323001892  13.98318716821 3.71608868792066  13.5206352284154 4.15411917191858  L 17.1800886767173 8.01421220472605  Z " fill-rule="nonzero" fill="url(#LinearGradient120)" stroke="none" transform="matrix(1 0 0 1 1469 998 )" />
  </g>
</svg>