<?xml version="1.0" encoding="utf-8"?>
<svg version="1.1" xmlns:xlink="http://www.w3.org/1999/xlink" width="51px" height="51px" xmlns="http://www.w3.org/2000/svg">
  <defs>
    <filter x="1412px" y="387px" width="51px" height="51px" filterUnits="userSpaceOnUse" id="filter231">
      <feOffset dx="0" dy="0" in="SourceAlpha" result="shadowOffsetInner" />
      <feGaussianBlur stdDeviation="8" in="shadowOffsetInner" result="shadowGaussian" />
      <feComposite in2="shadowGaussian" operator="atop" in="SourceAlpha" result="shadowComposite" />
      <feColorMatrix type="matrix" values="0 0 0 0 0.0705882352941176  0 0 0 0 0.141176470588235  0 0 0 0 0.247058823529412  0 0 0 0.0274509803921569 0  " in="shadowComposite" />
    </filter>
    <g id="widget232">
      <path d="M 1.09498 18.2153  C 1.06398 18.2183  1.03298 18.2193  1.00398 18.2193  C 0.72346 18.2188  0.456046 18.1005  0.266977 17.8933  C 0.0744232 17.6877  -0.0212578 17.4098  0.00397781 17.1293  L 0.248977 14.4353  L 11.567 3.12129  L 15.104 6.65729  L 3.78897 17.9703  L 1.09498 18.2153  Z M 15.811 5.94929  L 15.81 5.95028  L 12.274 2.41429  L 14.395 0.293287  C 14.5825 0.10551  14.8371 0  15.1025 0  C 15.3679 0  15.6224 0.10551  15.81 0.293287  L 17.931 2.41429  C 18.1187 2.60185  18.2242 2.85638  18.2242 3.12179  C 18.2242 3.3872  18.1187 3.64172  17.931 3.82929  L 15.811 5.94929  Z " fill-rule="nonzero" fill="#ffffff" stroke="none" transform="matrix(1 0 0 1 1428 403 )" />
    </g>
  </defs>
  <g transform="matrix(1 0 0 1 -1412 -387 )">
    <use xlink:href="#widget232" filter="url(#filter231)" />
    <use xlink:href="#widget232" />
  </g>
</svg>