<?xml version="1.0" encoding="utf-8"?>
<svg version="1.1" xmlns:xlink="http://www.w3.org/1999/xlink" width="14px" height="14px" xmlns="http://www.w3.org/2000/svg">
  <g transform="matrix(1 0 0 1 -1093 -632 )">
    <path d="M 13.5625 2.14375  C 13.5625 1.853359375  13.327890625 1.61875  13.0375 1.61875  L 10.28125 1.61875  L 10.28125 0.56875  C 10.28125 0.4965625  10.2221875 0.4375  10.15 0.4375  L 9.23125 0.4375  C 9.1590625 0.4375  9.1 0.4965625  9.1 0.56875  L 9.1 1.61875  L 4.9 1.61875  L 4.9 0.56875  C 4.9 0.4965625  4.8409375 0.4375  4.76875 0.4375  L 3.85 0.4375  C 3.7778125 0.4375  3.71875 0.4965625  3.71875 0.56875  L 3.71875 1.61875  L 0.9625 1.61875  C 0.672109375 1.61875  0.4375 1.853359375  0.4375 2.14375  L 0.4375 13.0375  C 0.4375 13.327890625  0.672109375 13.5625  0.9625 13.5625  L 13.0375 13.5625  C 13.327890625 13.5625  13.5625 13.327890625  13.5625 13.0375  L 13.5625 2.14375  Z M 12.38125 6.146875  L 12.38125 12.38125  L 1.61875 12.38125  L 1.61875 6.146875  L 12.38125 6.146875  Z M 12.38125 5  L 1.61875 5  L 1.61875 2.8  L 3.71875 2.8  L 3.71875 3.5875  C 3.71875 3.6596875  3.7778125 3.71875  3.85 3.71875  L 4.76875 3.71875  C 4.8409375 3.71875  4.9 3.6596875  4.9 3.5875  L 4.9 2.8  L 9.1 2.8  L 9.1 3.5875  C 9.1 3.6596875  9.1590625 3.71875  9.23125 3.71875  L 10.15 3.71875  C 10.2221875 3.71875  10.28125 3.6596875  10.28125 3.5875  L 10.28125 2.8  L 12.38125 2.8  L 12.38125 5  Z " fill-rule="nonzero" fill="#7f7f7f" stroke="none" transform="matrix(1 0 0 1 1093 632 )" />
  </g>
</svg>