<?xml version="1.0" encoding="utf-8"?>
<svg version="1.1" xmlns:xlink="http://www.w3.org/1999/xlink" width="13px" height="16px" xmlns="http://www.w3.org/2000/svg">
  <g transform="matrix(1 0 0 1 -401 -48 )">
    <path d="M 12.4583333333333 9.67215909090909  C 12.4583333333333 8.84034090909091  12.2890625 8.03238636363636  11.9522135416667 7.27045454545454  C 11.6221354166667 6.52386363636364  11.1498697916667 5.8625  10.5489583333333 5.30681818181818  L 10.0563802083333 4.85170454545455  C 9.98359375 4.78693181818182  9.86848958333333 4.81590909090909  9.836328125 4.90795454545455  L 9.61627604166667 5.54375  C 9.47916666666667 5.94261363636364  9.226953125 6.35  8.86979166666667 6.75056818181818  C 8.84609375 6.77613636363636  8.81901041666667 6.78295454545455  8.800390625 6.78465909090909  C 8.78177083333333 6.78636363636364  8.75299479166667 6.78295454545455  8.72760416666667 6.75909090909091  C 8.70390625 6.73863636363637  8.69205729166667 6.70795454545455  8.69375 6.67727272727273  C 8.75638020833333 5.65113636363636  8.45169270833333 4.49375  7.784765625 3.23409090909091  C 7.23294270833333 2.1875  6.46614583333333 1.37102272727273  5.50807291666667 0.801704545454546  L 4.808984375 0.3875  C 4.717578125 0.332954545454546  4.60078125 0.404545454545455  4.605859375 0.511931818181818  L 4.64309895833333 1.33011363636364  C 4.66848958333333 1.88920454545455  4.60416666666667 2.38352272727273  4.45182291666667 2.79431818181818  C 4.265625 3.29715909090909  3.99817708333333 3.76420454545455  3.65625 4.18352272727273  C 3.41588541666667 4.47670454545455  3.14674479166667 4.74090909090909  2.85221354166667 4.96931818181818  C 2.13958333333333 5.51988636363637  1.55221354166667 6.2375  1.15442708333333 7.04034090909091  C 0.753255208333333 7.85170454545455  0.541666666666667 8.76022727272727  0.541666666666667 9.67045454545455  C 0.541666666666667 10.475  0.699088541666667 11.2539772727273  1.010546875 11.9886363636364  C 1.31184895833333 12.6960227272727  1.741796875 13.3335227272727  2.28854166666667 13.8789772727273  C 2.83697916666667 14.4244318181818  3.4734375 14.8539772727273  4.18268229166667 15.1522727272727  C 4.91731770833333 15.4625  5.69596354166667 15.6193181818182  6.5 15.6193181818182  C 7.30403645833333 15.6193181818182  8.08268229166667 15.4625  8.81731770833333 15.1539772727273  C 9.5265625 14.8556818181818  10.1647135416667 14.4278409090909  10.7114583333333 13.8806818181818  C 11.2598958333333 13.3352272727273  11.68984375 12.6977272727273  11.989453125 11.9903409090909  C 12.3009114583333 11.2556818181818  12.4583333333333 10.4767045454545  12.4583333333333 9.67215909090909  Z " fill-rule="nonzero" fill="#ff2a00" stroke="none" transform="matrix(1 0 0 1 401 48 )" />
  </g>
</svg>