<?xml version="1.0" encoding="utf-8"?>
<svg version="1.1" xmlns:xlink="http://www.w3.org/1999/xlink" width="20px" height="22px" xmlns="http://www.w3.org/2000/svg">
  <g transform="matrix(1 0 0 1 -1131 -31 )">
    <path d="M 19.89296875 14.48515625  C 19.9984375 14.196875  19.91171875 13.86875  19.675 13.66484375  L 18.13984375 12.35234375  C 18.2125 11.90703125  18.25 11.45234375  18.25 10.99765625  C 18.25 10.54296875  18.2125 10.08828125  18.13984375 9.64296875  L 19.675 8.33046875  C 19.91171875 8.12890625  19.9984375 7.80078125  19.89296875 7.50546875  L 19.871875 7.44453125  C 19.44765625 6.2609375  18.81953125 5.1734375  18.00390625 4.2125  L 17.96171875 4.16328125  C 17.76015625 3.9265625  17.434375 3.8375  17.1390625 3.940625  L 15.23359375 4.61796875  C 14.53046875 4.04140625  13.7453125 3.58671875  12.896875 3.26796875  L 12.52890625 1.27578125  C 12.47265625 0.968750000000001  12.23125 0.729687500000001  11.92421875 0.6734375  L 11.8609375 0.66171875  C 10.63984375 0.44140625  9.35546875 0.44140625  8.134375 0.66171875  L 8.07109375 0.6734375  C 7.7640625 0.729687500000001  7.52265625 0.968750000000001  7.46640625 1.27578125  L 7.09609375 3.27734375  C 6.2546875 3.59609375  5.47421875 4.0484375  4.77578125 4.62265625  L 2.85625 3.940625  C 2.56328125 3.8375  2.23515625 3.92421875  2.03359375 4.16328125  L 1.99140625 4.2125  C 1.17578125 5.17578125  0.547656249999997 6.26328125  0.123437499999996 7.44453125  L 0.102343749999996 7.50546875  C -0.00312500000000382 7.7984375  0.0835937499999959 8.1265625  0.320312499999996 8.33046875  L 1.87421875 9.65703125  C 1.8015625 10.09765625  1.76640625 10.54765625  1.76640625 10.9953125  C 1.76640625 11.4453125  1.8015625 11.8953125  1.87421875 12.33359375  L 0.3203125 13.66015625  C 0.0835937500000004 13.86171875  -0.00312499999999982 14.18984375  0.10234375 14.48515625  L 0.1234375 14.54609375  C 0.54765625 15.72734375  1.17578125 16.8171875  1.99140625 17.778125  L 2.03359375 17.82734375  C 2.23515625 18.0640625  2.5609375 18.153125  2.85625 18.05  L 4.77578125 17.36796875  C 5.47421875 17.9421875  6.2546875 18.396875  7.09609375 18.71328125  L 7.46640625 20.71484375  C 7.52265625 21.021875  7.7640625 21.2609375  8.07109375 21.3171875  L 8.134375 21.32890625  C 8.74609375 21.4390625  9.371875 21.4953125  9.99765625 21.4953125  C 10.6234375 21.4953125  11.2515625 21.4390625  11.8609375 21.32890625  L 11.92421875 21.3171875  C 12.23125 21.2609375  12.47265625 21.021875  12.52890625 20.71484375  L 12.896875 18.72265625  C 13.7453125 18.40390625  14.53046875 17.9515625  15.23359375 17.37265625  L 17.1390625 18.05  C 17.43203125 18.153125  17.76015625 18.06640625  17.96171875 17.82734375  L 18.00390625 17.778125  C 18.81953125 16.81484375  19.44765625 15.72734375  19.871875 14.54609375  L 19.89296875 14.48515625  Z M 16.3234375 8.984375  L 16.47578125 9.91953125  C 16.534375 10.2734375  16.56484375 10.63671875  16.56484375 11  C 16.56484375 11.36328125  16.534375 11.7265625  16.47578125 12.08046875  L 16.32109375 13.0203125  L 18.071875 14.51796875  C 17.80703125 15.1296875  17.471875 15.70625  17.0734375 16.24296875  L 14.8984375 15.471875  L 14.1625 16.0765625  C 13.60234375 16.5359375  12.97890625 16.896875  12.30390625 17.15  L 11.4109375 17.48515625  L 10.99140625 19.75859375  C 10.3328125 19.83359375  9.66015625 19.83359375  8.99921875 19.75859375  L 8.5796875 17.48046875  L 7.69375 17.140625  C 7.02578125 16.8875  6.4046875 16.5265625  5.84921875 16.06953125  L 5.11328125 15.4625  L 2.92421875 16.240625  C 2.52578125 15.70390625  2.19296875 15.125  1.92578125 14.515625  L 3.6953125 13.00390625  L 3.54296875 12.06640625  C 3.48671875 11.7171875  3.45625 11.35625  3.45625 11  C 3.45625 10.64140625  3.484375 10.2828125  3.54296875 9.93359374999999  L 3.6953125 8.99609374999999  L 1.92578125 7.48437499999999  C 2.190625 6.87265624999999  2.52578125 6.29609375  2.92421875 5.75937499999999  L 5.11328125 6.53749999999999  L 5.84921875 5.93046874999999  C 6.4046875 5.47343749999999  7.02578125 5.1125  7.69375 4.85937499999999  L 8.58203125 4.52421874999999  L 9.0015625 2.24609374999999  C 9.66015625 2.17109374999999  10.3328125 2.17109374999999  10.99375 2.24609374999999  L 11.41328125 4.51953124999999  L 12.30625 4.8546875  C 12.97890625 5.1078125  13.6046875 5.46874999999999  14.16484375 5.928125  L 14.90078125 6.5328125  L 17.07578125 5.76171875  C 17.47421875 6.2984375  17.80703125 6.87734375  18.07421875 7.48671874999999  L 16.3234375 8.984375  Z " fill-rule="nonzero" fill="#ffffff" stroke="none" fill-opacity="0.4" transform="matrix(1 0 0 1 1131 31 )" />
  </g>
</svg>