<?xml version="1.0" encoding="utf-8"?>
<svg version="1.1" xmlns:xlink="http://www.w3.org/1999/xlink" width="10px" height="9px" xmlns="http://www.w3.org/2000/svg">
  <g transform="matrix(1 0 0 1 -1136 -37 )">
    <path d="M 9.125 4.765625  C 9.125 2.4875  7.278125 0.640625  5 0.640625  C 2.721875 0.640625  0.875 2.4875  0.875 4.765625  C 0.875 7.04375  2.721875 8.890625  5 8.890625  C 7.278125 8.890625  9.125 7.04375  9.125 4.765625  Z M 7.625 4.765625  C 7.625 5.46640625  7.35078125 6.125  6.85625 6.621875  C 6.359375 7.11640625  5.70078125 7.390625  5 7.390625  C 4.29921875 7.390625  3.640625 7.11640625  3.14375 6.621875  C 2.64921875 6.125  2.375 5.46640625  2.375 4.765625  C 2.375 4.06484375  2.64921875 3.40625  3.14375 2.909375  C 3.640625 2.4125  4.29921875 2.140625  5 2.140625  C 5.70078125 2.140625  6.359375 2.4125  6.85625 2.909375  C 7.35078125 3.40625  7.625 4.06484375  7.625 4.765625  Z " fill-rule="nonzero" fill="#ffffff" stroke="none" fill-opacity="0.4" transform="matrix(1 0 0 1 1136 37 )" />
  </g>
</svg>