<?xml version="1.0" encoding="utf-8"?>
<svg version="1.1" xmlns:xlink="http://www.w3.org/1999/xlink" width="16px" height="16px" xmlns="http://www.w3.org/2000/svg">
  <g transform="matrix(1 0 0 1 -1232 -287 )">
    <path d="M 16 11.6666666666667  C 16 11.575  15.925 11.5  15.8333333333333 11.5  L 14.7083333333333 11.5  L 14.7083333333333 8.58333333333333  L 8.70833333333333 8.58333333333333  L 8.70833333333333 6.66666666666667  L 13.6666666666667 6.66666666666667  C 13.85 6.66666666666667  14 6.51666666666667  14 6.33333333333333  L 14 0.833333333333333  C 14 0.65  13.85 0.5  13.6666666666667 0.5  L 2.33333333333333 0.5  C 2.15 0.5  2 0.65  2 0.833333333333333  L 2 6.33333333333333  C 2 6.51666666666667  2.15 6.66666666666667  2.33333333333333 6.66666666666667  L 7.29166666666667 6.66666666666667  L 7.29166666666667 8.58333333333333  L 1.29166666666667 8.58333333333333  L 1.29166666666667 11.5  L 0.166666666666667 11.5  C 0.0749999999999997 11.5  0 11.575  0 11.6666666666667  L 0 15.3333333333333  C 0 15.425  0.0749999999999997 15.5  0.166666666666667 15.5  L 3.83333333333333 15.5  C 3.925 15.5  4 15.425  4 15.3333333333333  L 4 11.6666666666667  C 4 11.575  3.925 11.5  3.83333333333333 11.5  L 2.70833333333333 11.5  L 2.70833333333333 10  L 7.29166666666667 10  L 7.29166666666667 11.5  L 6.16666666666667 11.5  C 6.075 11.5  6 11.575  6 11.6666666666667  L 6 15.3333333333333  C 6 15.425  6.075 15.5  6.16666666666667 15.5  L 9.83333333333333 15.5  C 9.925 15.5  10 15.425  10 15.3333333333333  L 10 11.6666666666667  C 10 11.575  9.925 11.5  9.83333333333333 11.5  L 8.70833333333333 11.5  L 8.70833333333333 10  L 13.2916666666667 10  L 13.2916666666667 11.5  L 12.1666666666667 11.5  C 12.075 11.5  12 11.575  12 11.6666666666667  L 12 15.3333333333333  C 12 15.425  12.075 15.5  12.1666666666667 15.5  L 15.8333333333333 15.5  C 15.925 15.5  16 15.425  16 15.3333333333333  L 16 11.6666666666667  Z M 2.66666666666667 12.8875  L 2.66666666666667 14.1104166666667  C 2.66666666666667 14.1416666666667  2.64166666666667 14.1666666666667  2.61041666666667 14.1666666666667  L 1.3875 14.1666666666667  C 1.35625 14.1666666666667  1.33125 14.1416666666667  1.33125 14.1104166666667  L 1.33125 12.8875  C 1.33125 12.85625  1.35625 12.83125  1.3875 12.83125  L 2.61041666666667 12.83125  C 2.64166666666667 12.83125  2.66666666666667 12.85625  2.66666666666667 12.8875  Z M 8.66666666666667 12.8875  L 8.66666666666667 14.1104166666667  C 8.66666666666667 14.1416666666667  8.64166666666667 14.1666666666667  8.61041666666667 14.1666666666667  L 7.3875 14.1666666666667  C 7.35625 14.1666666666667  7.33125 14.1416666666667  7.33125 14.1104166666667  L 7.33125 12.8875  C 7.33125 12.85625  7.35625 12.83125  7.3875 12.83125  L 8.61041666666667 12.83125  C 8.64166666666667 12.83125  8.66666666666667 12.85625  8.66666666666667 12.8875  Z M 12.6666666666667 5.33333333333333  L 3.33333333333333 5.33333333333333  L 3.33333333333333 1.83333333333333  L 12.6666666666667 1.83333333333333  L 12.6666666666667 5.33333333333333  Z M 14.6666666666667 12.8875  L 14.6666666666667 14.1104166666667  C 14.6666666666667 14.1416666666667  14.6416666666667 14.1666666666667  14.6104166666667 14.1666666666667  L 13.3875 14.1666666666667  C 13.35625 14.1666666666667  13.33125 14.1416666666667  13.33125 14.1104166666667  L 13.33125 12.8875  C 13.33125 12.85625  13.35625 12.83125  13.3875 12.83125  L 14.6104166666667 12.83125  C 14.6416666666667 12.83125  14.6666666666667 12.85625  14.6666666666667 12.8875  Z " fill-rule="nonzero" fill="#ffffff" stroke="none" transform="matrix(1 0 0 1 1232 287 )" />
  </g>
</svg>