<?xml version="1.0" encoding="utf-8"?>
<svg version="1.1" xmlns:xlink="http://www.w3.org/1999/xlink" width="18px" height="22px" xmlns="http://www.w3.org/2000/svg">
  <g transform="matrix(1 0 0 1 -1228 -1089 )">
    <path d="M 11.9859375 0.7203125  L 17.0296875 5.76640625  C 17.1703125 5.90703125  17.25 6.096875  17 6.29609375  L 17 20.75  C 17.25 21.16484375  16.91484375 21.5  16.5 21.5  L 1.5 21.5  C 1.08515625 21.5  0.75 21.16484375  1 20.75  L 1 1.25  C 0.75 0.83515625  1.08515625 0.5  1.5 0.5  L 11.45390625 0.5  C 11.653125 0.5  11.8453125 0.5796875  11.9859375 0.7203125  Z M 11.109375 6.640625  L 15.5203125 6.640625  L 11.109375 2.2296875  L 11.109375 6.640625  Z " fill-rule="nonzero" fill="#6388fc" stroke="none" transform="matrix(1 0 0 1 1228 1089 )" />
  </g>
</svg>