<?xml version="1.0" encoding="utf-8"?>
<svg version="1.1" xmlns:xlink="http://www.w3.org/1999/xlink" width="16px" height="16px" xmlns="http://www.w3.org/2000/svg">
  <g transform="matrix(1 0 0 1 -116 -1082 )">
    <path d="M 15.4166666666667 7.30208333333333  C 15.5104166666667 7.19375  15.4333333333333 7.02708333333333  15.2916666666667 7.02708333333333  L 13.6041666666667 7.02708333333333  C 13.5083333333333 7.02708333333333  13.4166666666667 7.06875  13.3520833333333 7.14166666666667  L 8.79166666666667 12.3979166666667  L 8.79166666666667 0.666666666666667  C 8.79166666666667 0.575  8.71666666666667 0.5  8.625 0.5  L 7.375 0.5  C 7.28333333333334 0.5  7.20833333333333 0.575  7.20833333333333 0.666666666666667  L 7.20833333333333 12.3979166666667  L 2.64791666666667 7.14166666666667  C 2.58541666666667 7.06875  2.49375 7.02708333333333  2.39583333333333 7.02708333333333  L 0.708333333333333 7.02708333333333  C 0.566666666666666 7.02708333333333  0.489583333333333 7.19583333333333  0.583333333333333 7.30208333333333  L 7.49791666666667 15.2708333333333  C 7.7625 15.5770833333333  8.2375 15.5770833333333  8.50416666666667 15.2708333333333  L 15.4166666666667 7.30208333333333  Z " fill-rule="nonzero" fill="#238f41" stroke="none" transform="matrix(1 0 0 1 116 1082 )" />
  </g>
</svg>