<?xml version="1.0" encoding="utf-8"?>
<svg version="1.1" xmlns:xlink="http://www.w3.org/1999/xlink" width="14px" height="14px" xmlns="http://www.w3.org/2000/svg">
  <g transform="matrix(1 0 0 1 -155 -406 )">
    <path d="M 7 0.318181818181818  C 3.31008522727272 0.318181818181818  0.318181818181818 3.31008522727274  0.318181818181818 7  C 0.318181818181818 10.6899147727273  3.31008522727272 13.6818181818182  7 13.6818181818182  C 10.6899147727273 13.6818181818182  13.6818181818182 10.6899147727273  13.6818181818182 7  C 13.6818181818182 3.31008522727274  10.6899147727273 0.318181818181818  7 0.318181818181818  Z M 7 12.5482954545455  C 3.93650568181818 12.5482954545455  1.45170454545455 10.0634943181818  1.45170454545455 7  C 1.45170454545455 3.9365056818182  3.93650568181818 1.45170454545455  7 1.45170454545455  C 10.0634943181818 1.45170454545455  12.5482954545455 3.9365056818182  12.5482954545455 7  C 12.5482954545455 10.0634943181818  10.0634943181818 12.5482954545455  7 12.5482954545455  Z M 7.47578125 8.61079545454546  L 7.47578125 8.27223011363637  C 7.47578125 7.97840909090911  7.66072443181819 7.7099431818182  7.93664772727274 7.60404829545455  C 8.81661931818183 7.26548295454546  9.38487215909091 6.48991477272728  9.38487215909091 5.62784090909091  C 9.38636363636364 5.04169034090908  9.12982954545455 4.49431818181818  8.66448863636363 4.08714488636363  C 8.21704545454545 3.69488636363635  7.62642045454546 3.48011363636364  7 3.48011363636364  C 6.37357954545455 3.48011363636364  5.78295454545455 3.69637784090909  5.33551136363637 4.08714488636363  C 4.87017045454545 4.49431818181818  4.61363636363636 5.04169034090908  4.61363636363636 5.62784090909091  L 4.61363636363636 5.7411931818182  C 4.61363636363636 5.80681818181818  4.66732954545454 5.86051136363638  4.73295454545455 5.86051136363638  L 5.44886363636364 5.86051136363638  C 5.51448863636364 5.86051136363638  5.56818181818182 5.80681818181818  5.56818181818182 5.7411931818182  L 5.56818181818182 5.62784090909091  C 5.56818181818182 4.97009943181817  6.21100852272727 4.43465909090909  7 4.43465909090909  C 7.78899147727273 4.43465909090909  8.43181818181818 4.97009943181817  8.43181818181818 5.62784090909091  C 8.43181818181818 6.09169034090911  8.10369318181818 6.51676136363638  7.59509943181819 6.71214488636363  C 7.27890624999999 6.83295454545455  7.01044034090908 7.04474431818182  6.81803977272728 7.32215909090911  C 6.62265624999999 7.60553977272729  6.52123579545455 7.94559659090908  6.52123579545455 8.29012784090909  L 6.52123579545455 8.61079545454546  C 6.52123579545455 8.67642045454544  6.57492897727273 8.73011363636364  6.64055397727273 8.73011363636364  L 7.35646306818182 8.73011363636364  C 7.42208806818183 8.73011363636364  7.47578125 8.67642045454544  7.47578125 8.61079545454546  Z M 7.59659090909091 10.28125  C 7.59659090909091 9.95176193902139  7.32948806097861 9.68465909090909  7 9.68465909090909  C 6.67051193902139 9.68465909090909  6.40340909090909 9.95176193902139  6.40340909090909 10.28125  C 6.40340909090909 10.6107380609786  6.67051193902139 10.8778409090909  7 10.8778409090909  C 7.32948806097861 10.8778409090909  7.59659090909091 10.6107380609786  7.59659090909091 10.28125  Z " fill-rule="nonzero" fill="#888888" stroke="none" transform="matrix(1 0 0 1 155 406 )" />
  </g>
</svg>