<?xml version="1.0" encoding="utf-8"?>
<svg version="1.1" xmlns:xlink="http://www.w3.org/1999/xlink" width="50px" height="52px" xmlns="http://www.w3.org/2000/svg">
  <defs>
    <filter x="1320px" y="386px" width="50px" height="52px" filterUnits="userSpaceOnUse" id="filter227">
      <feOffset dx="0" dy="0" in="SourceAlpha" result="shadowOffsetInner" />
      <feGaussianBlur stdDeviation="8" in="shadowOffsetInner" result="shadowGaussian" />
      <feComposite in2="shadowGaussian" operator="atop" in="SourceAlpha" result="shadowComposite" />
      <feColorMatrix type="matrix" values="0 0 0 0 0.0705882352941176  0 0 0 0 0.141176470588235  0 0 0 0 0.247058823529412  0 0 0 0.0274509803921569 0  " in="shadowComposite" />
    </filter>
    <g id="widget228">
      <path d="M 18 18  C 18 19.1046  17.1046 20  16 20  L 2 20  C 0.89543 20  0 19.1046  0 18  L 0 4  C 0 2.89543  0.89543 2  2 2  L 4 2  L 4 0  L 6 0  L 6 2  L 12 2  L 12 0  L 14 0  L 14 2  L 16 2  C 17.1046 2  18 2.89543  18 4  L 18 18  Z M 16 8  L 2 8  L 2 18  L 16 18  L 16 8  Z M 16 4  L 2 4  L 2 6  L 16 6  L 16 4  Z M 14 14  L 14 16  L 12 16  L 12 14  L 14 14  Z M 10 14  L 10 16  L 8 16  L 8 14  L 10 14  Z M 6 14  L 6 16  L 4 16  L 4 14  L 6 14  Z M 14 10  L 14 12  L 12 12  L 12 10  L 14 10  Z M 10 10  L 10 12  L 8 12  L 8 10  L 10 10  Z M 6 10  L 6 12  L 4 12  L 4 10  L 6 10  Z " fill-rule="nonzero" fill="#ffffff" stroke="none" transform="matrix(1 0 0 1 1336 402 )" />
    </g>
  </defs>
  <g transform="matrix(1 0 0 1 -1320 -386 )">
    <use xlink:href="#widget228" filter="url(#filter227)" />
    <use xlink:href="#widget228" />
  </g>
</svg>