<?xml version="1.0" encoding="utf-8"?>
<svg version="1.1" xmlns:xlink="http://www.w3.org/1999/xlink" width="54px" height="51px" xmlns="http://www.w3.org/2000/svg">
  <defs>
    <filter x="1501px" y="387px" width="54px" height="51px" filterUnits="userSpaceOnUse" id="filter229">
      <feOffset dx="0" dy="0" in="SourceAlpha" result="shadowOffsetInner" />
      <feGaussianBlur stdDeviation="8" in="shadowOffsetInner" result="shadowGaussian" />
      <feComposite in2="shadowGaussian" operator="atop" in="SourceAlpha" result="shadowComposite" />
      <feColorMatrix type="matrix" values="0 0 0 0 0.0705882352941176  0 0 0 0 0.141176470588235  0 0 0 0 0.247058823529412  0 0 0 0.0274509803921569 0  " in="shadowComposite" />
    </filter>
    <g id="widget230">
      <path d="M 11 13  L 17 19  L 5 19  L 11 13  Z M 6 14  L 6 16  L 2 16  C 0.89543 16  0 15.1046  0 14  L 0 2  C 0 0.89543  0.89543 0  2 0  L 20 0  C 21.1046 0  22 0.89543  22 2  L 22 14  C 22 15.1046  21.1046 16  20 16  L 16 16  L 16 14  L 20 14  L 20 2  L 2 2  L 2 14  L 6 14  Z " fill-rule="nonzero" fill="#ffffff" stroke="none" transform="matrix(1 0 0 1 1517 403 )" />
    </g>
  </defs>
  <g transform="matrix(1 0 0 1 -1501 -387 )">
    <use xlink:href="#widget230" filter="url(#filter229)" />
    <use xlink:href="#widget230" />
  </g>
</svg>