<svg xmlns="http://www.w3.org/2000/svg" xmlns:xlink="http://www.w3.org/1999/xlink"  viewBox="0 0 100 120">
  <defs>
    <linearGradient id="linear-gradient" x1="0.5" x2="0.5" y2="1" gradientUnits="objectBoundingBox">
      <stop offset="0" stop-color="#ffc547"/>
      <stop offset="1" stop-color="#ffae01"/>
    </linearGradient>
    <filter id="Path" x="57" y="0" width="46" height="46" filterUnits="userSpaceOnUse">
      <feOffset dy="-2" input="SourceAlpha"/>
      <feGaussianBlur stdDeviation="1" result="blur"/>
      <feFlood flood-opacity="0.09"/>
      <feComposite operator="in" in2="blur"/>
      <feComposite in="SourceGraphic"/>
    </filter>
  </defs>
  <g id="files_icon-music" data-name="files icon-music" transform="translate(0 0)">
    <path id="Combined_Shape" data-name="Combined Shape" d="M60,0l40,40v66a14,14,0,0,1-14,14H14A14,14,0,0,1,0,106V14A14,14,0,0,1,14,0Z" opacity="0.9" fill="url(#linear-gradient)"/>
    <g transform="matrix(1, 0, 0, 1, 0, -5)" filter="url(#Path)">
      <path id="Path-2" data-name="Path" d="M0,0H25.293C33.025,0,40,6.975,40,14.707V40Z" transform="translate(100 45) rotate(180)" fill="rgba(255,255,255,0.4)"/>
    </g>
    <g id="music_1_" data-name="music (1)" transform="translate(20 50)">
      <path id="Path-3" data-name="Path" d="M36.867,2.3V29.186a3.159,3.159,0,0,1-.816,2.136,5.45,5.45,0,0,1-2.064,1.452,13.625,13.625,0,0,1-2.484.768,10.77,10.77,0,0,1-4.632,0,13.6,13.6,0,0,1-2.484-.768,5.453,5.453,0,0,1-2.064-1.452,3.2,3.2,0,0,1,0-4.272A5.453,5.453,0,0,1,24.386,25.6a13.6,13.6,0,0,1,2.484-.768,11.638,11.638,0,0,1,2.316-.252,11.138,11.138,0,0,1,4.608.936V12.625L15.361,18.313V35.33a3.159,3.159,0,0,1-.816,2.136,5.45,5.45,0,0,1-2.064,1.452A13.626,13.626,0,0,1,10,39.686a11.619,11.619,0,0,1-2.316.252,11.638,11.638,0,0,1-2.316-.252,13.607,13.607,0,0,1-2.484-.768A5.453,5.453,0,0,1,.816,37.466a3.2,3.2,0,0,1,0-4.272A5.453,5.453,0,0,1,2.88,31.742a13.606,13.606,0,0,1,2.484-.768,11.638,11.638,0,0,1,2.316-.252,11.138,11.138,0,0,1,4.608.936V8.449a2.217,2.217,0,0,1,.456-1.356,2.369,2.369,0,0,1,1.176-.852L33.89.1a2.127,2.127,0,0,1,.672-.1,2.222,2.222,0,0,1,1.632.672A2.222,2.222,0,0,1,36.867,2.3Z" transform="translate(0.013 0.014)" fill="#fff"/>
    </g>
  </g>
</svg>
