<svg id="files_icon-zip" data-name="files icon-zip" xmlns="http://www.w3.org/2000/svg" xmlns:xlink="http://www.w3.org/1999/xlink"  viewBox="0 0 100 120">
  <defs>
    <linearGradient id="linear-gradient" x1="0.5" x2="0.5" y2="1" gradientUnits="objectBoundingBox">
      <stop offset="0" stop-color="#d0d8e1"/>
      <stop offset="1" stop-color="#bac3cd"/>
    </linearGradient>
    <clipPath id="clip-path">
      <path id="Mask" d="M60,0l40,40v66a14,14,0,0,1-14,14H14A14,14,0,0,1,0,106V14A14,14,0,0,1,14,0Z" fill="url(#linear-gradient)"/>
    </clipPath>
    <filter id="Corner" x="57" y="-5" width="46" height="46" filterUnits="userSpaceOnUse">
      <feOffset dy="-2" input="SourceAlpha"/>
      <feGaussianBlur stdDeviation="1" result="blur"/>
      <feFlood flood-opacity="0.09"/>
      <feComposite operator="in" in2="blur"/>
      <feComposite in="SourceGraphic"/>
    </filter>
  </defs>
  <g id="Group">
    <path id="Mask-2" data-name="Mask" d="M60,0l40,40v66a14,14,0,0,1-14,14H14A14,14,0,0,1,0,106V14A14,14,0,0,1,14,0Z" fill="url(#linear-gradient)"/>
    <g id="Group-2" data-name="Group" clip-path="url(#clip-path)">
      <g transform="matrix(1, 0, 0, 1, 0, 0)" filter="url(#Corner)">
        <path id="Corner-2" data-name="Corner" d="M0,0H25.293C33.025,0,40,6.975,40,14.707V40Z" transform="translate(100 40) rotate(180)" fill="rgba(255,255,255,0.4)"/>
      </g>
      <g id="Zip-Folder" transform="translate(20 50)">
        <path id="Shape" d="M20.539,35.333a.174.174,0,0,1-.133-.067.174.174,0,0,0-.133-.067c-.275,0-.4-.276-.4-.533v-6a5.318,5.318,0,0,0-3.467-4.934l-.667-.4a.47.47,0,0,0-.266-.133c-.031-.031-.07-.063-.111-.1a.588.588,0,0,1-.289-.438L14.672,20V2.667a4.128,4.128,0,0,0-.4-1.733,1.006,1.006,0,0,1,.133-.667A.7.7,0,0,1,14.939,0h3.733A3.9,3.9,0,0,1,21.55,1.2,3.718,3.718,0,0,1,22.539,4V32a3.817,3.817,0,0,1-1.6,3.2A.492.492,0,0,1,20.539,35.333ZM1.939,10.667a2.367,2.367,0,0,1-1.534-.4,1.421,1.421,0,0,1-.266-1.6l1.733-6h.266l1.733,6a1.754,1.754,0,0,1-.4,1.6A2.367,2.367,0,0,1,1.939,10.667Z" transform="translate(12.005 1.333)" fill="#fff"/>
        <path id="Path" d="M2,3.2a.68.68,0,0,1,.667-.533H4a.68.68,0,0,1,.667.533l.8,3.067L6.533,4,4.933.267V0h-3.6V.267L0,4,1.067,6.533,2,3.2Z" transform="translate(10.677)" fill="#fff"/>
        <path id="Shape-2" data-name="Shape" d="M26.667,40H4a3.928,3.928,0,0,1-4-4V4A3.928,3.928,0,0,1,4,0h6.667L9.333,3.733v.534L10.667,7.6a.735.735,0,0,0,.667.4L10.8,9.6a2.747,2.747,0,0,0,.667,2.933,3.573,3.573,0,0,0,2.533.8,3.571,3.571,0,0,0,2.533-.8A2.745,2.745,0,0,0,17.2,9.6l-.533-1.733a.285.285,0,0,0,.266-.267l1.733-3.333a.409.409,0,0,0,0-.534L16.934,0H21.2a3.928,3.928,0,0,1,4,4V23.333a2.711,2.711,0,0,0,1.867,2.533l.933.4A3.87,3.87,0,0,1,30.667,30v6a3.928,3.928,0,0,1-4,4ZM11.334,33.333a.667.667,0,1,0,0,1.334h1.333a.667.667,0,1,0,0-1.334Zm4-1.333a.666.666,0,1,0,0,1.333h1.334a.666.666,0,0,0,0-1.333Zm-4-1.334a.667.667,0,0,0,0,1.334h1.333a.667.667,0,1,0,0-1.334Zm4-1.333a.666.666,0,1,0,0,1.333h1.334a.666.666,0,0,0,0-1.333Zm-4-1.334a.667.667,0,1,0,0,1.334h1.333a.667.667,0,1,0,0-1.334Zm4-1.333a.666.666,0,1,0,0,1.333h1.334a.666.666,0,0,0,0-1.333Zm-4-1.334a.667.667,0,1,0,0,1.334h1.333a.667.667,0,1,0,0-1.334Zm4-1.333a.666.666,0,1,0,0,1.333h1.334a.666.666,0,0,0,0-1.333Zm-4-1.334a.667.667,0,1,0,0,1.334h1.333a.667.667,0,1,0,0-1.334Zm4-1.333a.666.666,0,1,0,0,1.333h1.334a.666.666,0,0,0,0-1.333Zm-4-1.334a.667.667,0,0,0,0,1.334h1.333a.667.667,0,1,0,0-1.334Zm4-1.333a.666.666,0,1,0,0,1.333h1.334a.666.666,0,0,0,0-1.333Zm-4-1.334a.667.667,0,0,0,0,1.334h1.333a.667.667,0,0,0,0-1.334Zm4-1.333a.666.666,0,1,0,0,1.333h1.334a.666.666,0,0,0,0-1.333Zm-4-1.334a.667.667,0,0,0,0,1.334h1.333a.667.667,0,1,0,0-1.334Z" transform="translate(0.01)" fill="#fff"/>
      </g>
    </g>
  </g>
</svg>
