<svg xmlns="http://www.w3.org/2000/svg" xmlns:xlink="http://www.w3.org/1999/xlink"  viewBox="0 0 100 120">
  <defs>
    <linearGradient id="linear-gradient" x1="0.5" x2="0.5" y2="1" gradientUnits="objectBoundingBox">
      <stop offset="0" stop-color="#36d2ad"/>
      <stop offset="1" stop-color="#2dbc9a"/>
    </linearGradient>
    <filter id="Path" x="57" y="0" width="46" height="46" filterUnits="userSpaceOnUse">
      <feOffset dy="-2" input="SourceAlpha"/>
      <feGaussianBlur stdDeviation="1" result="blur"/>
      <feFlood flood-opacity="0.09"/>
      <feComposite operator="in" in2="blur"/>
      <feComposite in="SourceGraphic"/>
    </filter>
  </defs>
  <g id="files_icon-picture" data-name="files icon-picture" transform="translate(0 0)">
    <g id="PDF">
      <path id="Combined_Shape" data-name="Combined Shape" d="M60,0l40,40v66a14,14,0,0,1-14,14H14A14,14,0,0,1,0,106V14A14,14,0,0,1,14,0Z" opacity="0.8" fill="url(#linear-gradient)"/>
      <g transform="matrix(1, 0, 0, 1, 0, -5)" filter="url(#Path)">
        <path id="Path-2" data-name="Path" d="M0,0H25.293C33.025,0,40,6.975,40,14.707V40Z" transform="translate(100 45) rotate(180)" fill="rgba(255,255,255,0.4)"/>
      </g>
    </g>
    <g id="图片_1_" data-name="图片 (1)" transform="translate(20 50)">
      <path id="Shape" d="M42.224,40h-40A2.224,2.224,0,0,1,0,37.779V2.223A2.225,2.225,0,0,1,2.222,0h40a2.225,2.225,0,0,1,2.222,2.223V37.779A2.224,2.224,0,0,1,42.224,40ZM13.334,15.556h0L6.667,22.223V33.334H37.779V26.668L31.113,20l-6.667,6.668L13.334,15.556Zm20-8.888a4.444,4.444,0,1,0,4.444,4.444A4.449,4.449,0,0,0,33.335,6.667Z" fill="#fff"/>
    </g>
  </g>
</svg>
