<svg xmlns="http://www.w3.org/2000/svg" xmlns:xlink="http://www.w3.org/1999/xlink" viewBox="0 0 100 120">
  <defs>
    <filter id="Path" x="57" y="0" width="46" height="46" filterUnits="userSpaceOnUse">
      <feOffset dy="-2" input="SourceAlpha"/>
      <feGaussianBlur stdDeviation="1" result="blur"/>
      <feFlood flood-opacity="0.09"/>
      <feComposite operator="in" in2="blur"/>
      <feComposite in="SourceGraphic"/>
    </filter>
  </defs>
  <g id="files_icon-PDF" data-name="files icon-PDF" transform="translate(0 0)">
    <path id="Combined_Shape" data-name="Combined Shape" d="M60,0l40,40v66a14,14,0,0,1-14,14H14A14,14,0,0,1,0,106V14A14,14,0,0,1,14,0Z" fill="#e94848"/>
    <path id="acrobat_shape" data-name="acrobat shape" d="M4.778,43a4.8,4.8,0,0,1-3.4-8.167,1.458,1.458,0,0,1,.1-.119C3.431,33.139,6.44,31.99,9.923,30.66c.747-.285,1.519-.58,2.3-.889a94.14,94.14,0,0,0,5.345-13.885c-1.931-3.85-3.718-7.861-3.718-11.108a4.778,4.778,0,1,1,9.555,0c0,2.571-1.051,5.728-2.163,9.071-.193.581-.392,1.179-.584,1.768a35.593,35.593,0,0,0,6.927,9.018,38.749,38.749,0,0,1,10.631-2.18,4.778,4.778,0,1,1,0,9.555,17.435,17.435,0,0,1-5.9-1.146,19.517,19.517,0,0,1-5.457-3.034,99.448,99.448,0,0,0-12.946,4.375,62.393,62.393,0,0,1-5.643,9.331c-.028.025-.058.05-.09.075A4.707,4.707,0,0,1,4.778,43ZM9.7,33.878a31.738,31.738,0,0,0-6.331,3.016,2.054,2.054,0,0,0-.508,1.328,1.891,1.891,0,0,0,1.912,1.912,1.834,1.834,0,0,0,1.314-.493A44.465,44.465,0,0,0,9.7,33.878Zm28.517-8.555a35.987,35.987,0,0,0-7.659,1.493,17.855,17.855,0,0,0,7.659,2.329,1.911,1.911,0,1,0,0-3.822ZM19.454,19.216c-.917,2.79-2.009,6.025-3.374,9.107,2.446-.931,5.35-1.992,8.331-2.807A38.246,38.246,0,0,1,19.454,19.216ZM18.634,2.867a1.891,1.891,0,0,0-1.912,1.912c0,1.284.688,3.481,2.165,6.913a31.169,31.169,0,0,0,1.657-6.913A1.891,1.891,0,0,0,18.634,2.867Z" transform="translate(28 44)" fill="#fff"/>
    <g transform="matrix(1, 0, 0, 1, 0, -5)" filter="url(#Path)">
      <path id="Path-2" data-name="Path" d="M0,0H25.293C33.025,0,40,6.975,40,14.707V40Z" transform="translate(100 45) rotate(180)" fill="rgba(255,255,255,0.4)"/>
    </g>
  </g>
</svg>
