<?xml version="1.0" encoding="utf-8"?>
<svg version="1.1" xmlns:xlink="http://www.w3.org/1999/xlink" width="16px" height="16px" xmlns="http://www.w3.org/2000/svg">
  <g transform="matrix(1 0 0 1 -1470 -805 )">
    <path d="M 1478 806  C 1481.92 806  1485 809.08  1485 813  C 1485 816.92  1481.92 820  1478 820  C 1474.08 820  1471 816.92  1471 813  C 1471 809.08  1474.08 806  1478 806  Z " fill-rule="nonzero" fill="#ffffff" stroke="none" />
    <path d="M 1478 806  C 1481.92 806  1485 809.08  1485 813  C 1485 816.92  1481.92 820  1478 820  C 1474.08 820  1471 816.92  1471 813  C 1471 809.08  1474.08 806  1478 806  Z " stroke-width="2" stroke="#1593f5" fill="none" />
  </g>
</svg>